<svg width="1400" height="839" viewBox="0 0 1400 839" fill="none" xmlns="http://www.w3.org/2000/svg">
<g clip-path="url(#clip0_413_3)">
<rect width="1600" height="6102" transform="translate(0 -5081)" fill="#FEF8F5"/>
<path d="M1300 179H-36.207V839H1400V279C1400 223.772 1355.23 179 1300 179Z" fill="#0F264C"/>
<mask id="mask0_413_3" style="mask-type:alpha" maskUnits="userSpaceOnUse" x="-37" y="179" width="1437" height="660">
<path d="M1300 179H-36.207V839H1400V279C1400 223.772 1355.23 179 1300 179Z" fill="#0F264C"/>
</mask>
<g mask="url(#mask0_413_3)">
<path opacity="0.2" d="M-257.793 495.609C-207.524 431.887 -74.3807 307.63 56.0459 320.375C219.079 336.305 -90.684 635 56.0459 635C202.776 635 272.065 268.601 378.036 268.601C484.008 268.601 259.837 539.418 378.036 555.348C496.235 571.278 594.055 173.018 724.482 169.036C854.908 165.053 589.979 495.609 801.923 495.609" stroke="url(#paint0_linear_413_3)" stroke-width="2"/>
</g>
<path d="M352.668 175.983C350.686 167.134 347.415 158.766 343.053 151.071C342.459 150.013 341.765 148.859 341.071 147.801C336.016 139.625 329.771 132.315 322.535 125.967C321.643 125.101 320.652 124.331 319.661 123.562C311.929 117.31 303.107 112.212 293.592 108.557C292.402 108.076 291.213 107.692 290.023 107.307C280.507 104.036 270.199 102.209 259.593 102.017C258.998 102.017 258.304 102.017 257.709 102.017C257.115 102.017 256.421 102.017 255.826 102.017C245.121 102.209 234.911 104.036 225.396 107.307C224.206 107.692 223.017 108.172 221.827 108.557C212.312 112.212 203.49 117.31 195.758 123.562C194.767 124.331 193.776 125.197 192.884 125.967C185.648 132.315 179.304 139.625 174.348 147.801C173.654 148.859 173.059 150.013 172.365 151.071C168.004 158.766 164.733 167.134 162.751 175.983C162.453 177.233 162.255 178.483 161.958 179.734C160.966 185.12 160.471 190.603 160.471 196.181H354.849C354.849 190.603 354.353 185.024 353.362 179.734C353.164 178.483 352.966 177.233 352.668 175.983Z" fill="#0F264C"/>
<path d="M-21.2021 182.478C-21.2021 201.983 -9.68166 217.742 4.4872 217.742H30.1765C44.3454 217.742 55.7334 201.854 55.7334 182.478C55.7334 162.973 44.213 147.214 30.0441 147.214C29.7793 147.214 29.6468 147.214 29.382 147.214H4.4872C-9.81408 147.214 -21.2021 163.102 -21.2021 182.478Z" fill="#402B2B"/>
<path d="M180.073 182.09C180.073 201.595 191.594 217.354 205.763 217.354H231.452C245.621 217.354 257.009 201.466 257.009 182.09C257.009 162.585 245.488 146.826 231.319 146.826C231.055 146.826 230.922 146.826 230.657 146.826H205.763C191.461 146.826 180.073 162.585 180.073 182.09Z" fill="#F48767"/>
<path d="M-22.9229 179.12L80.4966 178.861L68.5788 172.015L-9.68093 172.144L-22.9229 179.12Z" fill="#402B2B"/>
<path d="M-120.517 121.638L-120.384 186.353L-36.4304 186.224L-9.6817 172.145L68.5781 172.015L92.6784 185.966L263.499 185.578C266.28 185.578 268.531 183.383 268.531 180.67L268.399 120.863L-120.517 121.638Z" fill="#F36F49"/>
<path d="M62.489 136.363L196.497 136.105L196.232 17.6545C196.232 12.8752 192.26 9 187.228 9L62.0918 9.25836L62.489 136.363Z" fill="#F48767"/>
<path d="M-146.47 136.88L62.3555 136.493L62.0907 9.3877L-137.862 9.7752C-142.762 9.7752 -146.734 13.6503 -146.734 18.5589L-146.47 136.88Z" fill="#F06A5B"/>
<path d="M163.125 182.09C163.125 201.595 151.737 217.354 137.568 217.354H112.011V205.47C102.609 205.47 94.9287 195.007 94.9287 182.09C94.9287 169.173 102.477 158.71 111.878 158.71V146.826H137.435C151.604 146.955 162.992 162.714 163.125 182.09Z" fill="#F48767"/>
<path d="M90.8252 182.349C90.8252 198.366 100.227 211.284 111.88 211.154C123.533 211.154 132.802 198.237 132.802 182.22C132.802 166.203 123.4 153.285 111.747 153.415C100.227 153.415 90.8252 166.332 90.8252 182.349Z" fill="#F48767"/>
<path d="M111.879 201.337C119.559 201.337 125.65 192.811 125.65 182.219C125.65 171.627 119.427 163.231 111.746 163.231C104.066 163.231 97.9746 171.756 97.9746 182.348C97.9746 192.94 104.198 201.337 111.879 201.337ZM111.879 170.981C116.381 170.981 120.089 176.019 120.089 182.219C120.089 188.419 116.381 193.586 111.879 193.586C107.376 193.586 103.669 188.549 103.669 182.348C103.669 176.019 107.244 170.981 111.879 170.981Z" fill="#F7A58D"/>
<path d="M111.879 217.483C126.048 217.483 137.436 201.595 137.436 182.219C137.436 162.844 125.915 146.956 111.746 146.956C97.5775 146.956 86.1895 162.844 86.1895 182.219C86.1895 201.595 97.8424 217.613 111.879 217.483ZM111.746 153.414C123.399 153.414 132.801 166.331 132.801 182.219C132.801 198.237 123.532 211.154 111.879 211.154C100.226 211.154 90.8241 198.237 90.8241 182.349C90.8241 166.331 100.226 153.414 111.746 153.414Z" fill="#F7A58D"/>
<path d="M108.304 182.22C108.304 179.507 109.893 177.44 111.747 177.44C113.601 177.44 115.19 179.636 115.322 182.22C115.322 184.932 113.733 186.999 111.879 186.999C109.893 187.128 108.304 184.932 108.304 182.22Z" fill="#F48766"/>
<path d="M285.215 85.5993C285.215 86.116 285.612 86.5035 286.01 86.6326C287.069 86.891 291.042 86.891 292.233 86.5035C292.763 86.3743 293.293 85.9868 293.293 85.3409C293.69 75.0072 293.69 64.9318 293.293 55.3731C293.293 54.7272 292.763 54.3397 292.233 54.2105C290.909 53.823 286.274 53.5646 284.818 54.0813C284.288 54.2105 283.891 54.7272 283.891 55.2439C283.626 65.061 284.023 75.1364 285.215 85.5993Z" fill="#F69276"/>
<path d="M278.728 94.7701C278.86 94.7701 278.993 94.7701 279.257 94.641L288.262 90.2491C290.381 89.2157 291.705 87.149 291.705 84.8239L291.572 52.4017C291.572 51.11 290.513 50.0767 289.189 50.0767H264.427C263.764 50.0767 263.367 50.5933 263.367 51.11C263.367 51.7559 263.897 52.1434 264.427 52.1434H289.189C289.321 52.1434 289.321 52.2726 289.321 52.2726L289.454 84.6947C289.454 86.2448 288.527 87.5365 287.203 88.1824L278.198 92.5742C277.668 92.8326 277.404 93.4784 277.668 93.9951C277.933 94.641 278.331 94.7701 278.728 94.7701Z" fill="#F69276"/>
<path d="M80.4962 136.105C80.4962 136.105 83.9391 136.105 89.2359 136.105H110.291C126.048 136.105 129.756 143.726 139.423 162.456L170.012 162.326C170.012 162.326 170.012 160.131 170.012 156.385L286.805 156.126C287.335 146.697 288.394 127.579 288.394 109.495C288.394 108.849 288.394 108.333 288.394 107.687C288.394 102.52 287.467 96.8364 285.878 91.1528C279.655 68.9353 263.897 45.2968 257.408 36.6423C255.29 33.8005 253.436 31.3463 251.847 29.1504C247.344 23.3376 244.299 20.3667 238.605 20.3667L97.0486 20.7542C94.1354 20.7542 91.487 22.6918 90.6925 25.4044C78.5099 69.0645 80.3638 102.262 80.4962 136.105ZM199.806 36.1256C199.674 35.4798 200.203 34.9631 200.865 34.9631L243.902 34.8339C246.417 34.8339 248.933 36.1257 250.522 38.3216C267.34 60.6683 274.093 81.0774 276.609 92.8321L279.257 105.233C279.655 107.041 278.463 108.462 276.609 108.462H266.148C264.427 108.462 262.573 107.687 261.248 106.395L239.797 86.3735C237.413 84.1775 234.235 82.8859 231.189 82.8859H205.5L199.806 36.1256Z" fill="#F36F49"/>
<path d="M177.559 91.541C178.486 95.6745 179.545 99.9372 180.472 104.458C181.134 107.558 183.915 109.754 187.093 109.883C228.937 111.304 263.631 111.434 288.393 109.625C288.393 108.979 288.393 108.463 288.393 107.817C288.393 102.65 287.467 96.9663 285.878 91.2827L177.559 91.541Z" fill="#F6977C"/>
<path d="M100.226 35.0926L143.262 34.9634C145.778 34.9634 148.029 36.2551 149.221 38.451C161.271 60.7978 163.787 81.2069 163.787 92.9616V105.362C163.787 107.171 162.331 108.591 160.477 108.591H150.016C148.294 108.591 146.573 107.816 145.513 106.525L128.299 86.503C126.313 84.3071 123.532 82.8862 120.486 83.0154H94.7969L98.9019 36.2551C98.9019 35.6092 99.4316 35.0926 100.226 35.0926Z" fill="#F36F49"/>
<path d="M80.4962 136.105C80.4962 136.105 83.9391 136.105 89.2359 136.105H110.291C126.048 136.105 129.756 143.726 139.423 162.456L170.012 162.326C170.012 162.326 170.012 160.131 170.012 156.385L286.805 156.126C287.335 146.697 288.394 127.579 288.394 109.495C263.632 111.304 228.806 111.304 187.094 109.754C183.916 109.624 181.135 107.429 180.473 104.328C179.546 99.8074 178.486 95.4155 177.559 91.4112C171.865 67.7728 165.642 50.8512 157.432 32.5088C156.77 31.088 157.829 29.4087 159.418 29.4087L251.847 29.1504C247.344 23.3376 244.299 20.3667 238.605 20.3667L97.0486 20.7542C94.1354 20.7542 91.487 22.6918 90.6925 25.4044C78.5099 69.0645 80.3638 102.262 80.4962 136.105ZM94.6651 83.015L98.77 36.2548C98.77 35.609 99.4321 35.0923 100.094 35.0923L143.13 34.9631C145.646 34.9631 147.898 36.2548 149.089 38.4508C161.139 60.7975 163.655 81.2066 163.655 92.9612V105.362C163.655 107.17 162.199 108.591 160.345 108.591H149.884C148.162 108.591 146.441 107.816 145.382 106.524L128.167 86.5026C126.181 84.3067 123.4 82.8859 120.354 83.015H94.6651Z" fill="#F7A58D"/>
<path d="M85.6599 132.747C85.6599 134.684 87.249 136.105 89.2352 136.105H110.29C126.048 136.105 129.756 143.726 139.422 162.456L170.011 162.327C170.011 162.327 170.011 160.131 170.011 156.385L169.879 104.07C169.879 78.1069 165.111 61.7021 152.532 35.7386C150.678 31.8634 146.573 29.4092 142.203 29.4092L96.6507 29.5383C95.5914 29.5383 94.7969 30.1842 94.532 31.0884C85.5275 64.4147 85.5275 118.667 85.6599 132.747ZM94.6644 83.0155L98.7694 36.2553C98.7694 35.6094 99.4315 35.0927 100.094 35.0927L143.13 34.9636C145.646 34.9636 147.897 36.2553 149.089 38.4512C161.139 60.7979 163.655 81.2071 163.655 92.9617V105.362C163.655 107.171 162.198 108.591 160.344 108.591H149.883C148.162 108.591 146.44 107.816 145.381 106.525L128.167 86.5031C126.18 84.3072 123.399 82.8863 120.354 83.0155H94.6644Z" fill="#F58A6B"/>
<path d="M100.491 36.6426L143.262 36.5135C145.116 36.5135 146.838 37.5468 147.765 39.0969C160.212 62.2187 162.198 82.757 162.198 92.8324V105.233C162.198 106.137 161.404 106.912 160.477 106.912H150.016C148.692 106.912 147.5 106.395 146.705 105.491L129.491 85.4696C127.24 82.8862 123.929 81.3361 120.354 81.3361H96.5183L100.491 36.6426ZM100.226 35.0926C99.564 35.0926 98.9019 35.6092 98.9019 36.2551L94.7969 83.0154H120.486C123.532 83.0154 126.313 84.3071 128.299 86.503L145.513 106.525C146.573 107.816 148.294 108.591 150.016 108.591H160.477C162.331 108.591 163.787 107.171 163.787 105.362V92.9616C163.787 81.2069 161.271 60.7978 149.221 38.451C148.029 36.2551 145.778 34.9634 143.262 34.9634L100.226 35.0926Z" fill="#F7A58D"/>
<path d="M169.88 131.713V156.385L216.094 156.256C215.565 149.797 214.373 143.597 212.386 137.784C211.592 135.459 209.606 133.78 207.09 133.392C196.893 132.23 183.916 131.713 169.88 131.713ZM263.368 156.256H286.276C286.674 150.83 287.071 142.047 287.468 132.1C281.907 132.359 276.742 132.875 272.108 133.521C269.592 133.909 267.605 135.588 266.811 137.913C264.957 143.597 263.898 149.797 263.368 156.256Z" fill="#F6977C"/>
<path d="M170.012 181.186L277.139 180.928C284.422 180.928 290.381 175.115 290.381 168.011V165.815C290.381 163.748 288.659 162.198 286.673 162.198L170.144 162.456L170.012 181.186Z" fill="#F6977C"/>
<path d="M150.281 181.187H170.012V162.457H139.688L142.998 175.503C143.792 178.861 146.838 181.187 150.281 181.187Z" fill="#F7A58D"/>
<path d="M103.14 112.855C107.642 112.984 116.382 113.888 116.382 116.988C116.382 120.088 108.701 121.122 102.477 121.122C96.2537 121.122 95.5916 117.763 95.0619 116.342C94.6647 114.921 94.2674 112.725 103.14 112.855Z" fill="#F6977C"/>
<path d="M103.538 116.213C101.419 116.213 99.1678 115.567 98.1084 114.534C98.9029 114.146 100.095 113.759 101.949 113.759C105.391 113.759 110.953 114.146 113.866 115.438C113.469 115.696 112.41 116.213 110.688 116.213C108.569 116.213 105.789 116.213 103.538 116.213Z" fill="#F47B58"/>
<path d="M112.41 118.667C113.204 118.667 113.601 118.797 113.734 118.926C111.35 119.959 106.98 120.347 104.862 120.347C101.816 120.347 99.6973 120.347 99.0352 119.701C99.5648 119.313 100.757 118.667 101.948 118.667C103.537 118.797 111.35 118.667 112.41 118.667Z" fill="#F47B58"/>
<path d="M170.012 156.514C170.012 160.26 170.012 162.456 170.012 162.456L286.408 162.198C286.408 162.198 286.541 160.002 286.805 156.256L170.012 156.514Z" fill="#F58A6B"/>
<g opacity="0.2">
<path d="M220.199 130.421V155.093L259.263 154.964V130.292C259.263 127.321 256.482 124.996 253.039 124.996H226.291C222.98 125.125 220.199 127.58 220.199 130.421Z" fill="#F16036"/>
</g>
<path d="M272.372 154.189H280.582C282.701 154.189 284.555 152.51 284.555 150.314V146.31C284.555 144.243 282.833 142.435 280.582 142.435H272.372C270.253 142.435 268.399 144.114 268.399 146.31V150.314C268.399 152.51 270.253 154.189 272.372 154.189Z" fill="white"/>
<path d="M194.64 154.448H202.85C204.968 154.448 206.822 152.769 206.822 150.573V146.569C206.822 144.502 205.101 142.693 202.85 142.693H194.64C192.521 142.693 190.667 144.373 190.667 146.569V150.573C190.667 152.64 192.388 154.448 194.64 154.448Z" fill="white"/>
<path d="M141.673 85.858C141.673 86.3746 142.071 86.7622 142.468 86.8913C147.632 87.408 153.061 87.408 158.623 86.7622C159.285 86.633 159.682 86.2455 159.682 85.5996C160.08 75.2659 160.08 65.1905 159.682 55.6318C159.682 54.9859 159.153 54.5984 158.623 54.4693C152.929 53.8234 147.235 53.8234 141.276 54.4693C140.746 54.5984 140.349 55.1151 140.349 55.6318C139.952 65.3197 140.482 75.395 141.673 85.858Z" fill="#F7A58D"/>
<path d="M162.198 95.0289C162.595 95.0289 162.992 94.7706 163.125 94.3831C163.39 93.8664 163.125 93.2205 162.595 92.9622L153.591 88.6995C152.267 88.0536 151.34 86.6327 151.34 85.2118L151.207 52.7897C151.207 52.6605 151.34 52.6605 151.34 52.6605H156.901C157.563 52.6605 157.961 52.1438 157.961 51.6271C157.961 50.9813 157.431 50.5938 156.901 50.5938H151.34C150.015 50.5938 148.956 51.6271 148.956 52.9188L149.088 85.341C149.088 87.6661 150.413 89.7329 152.531 90.7663L161.536 95.0289C161.933 95.0289 162.066 95.0289 162.198 95.0289Z" fill="#F69276"/>
<path d="M222.93 182.716L260.404 182.636L260.38 171.657L222.905 171.736L222.93 182.716Z" fill="#F8B4A0"/>
<path opacity="0.6" d="M157.176 32.9C165.386 51.2424 171.477 68.1639 177.304 91.8023L285.623 91.544C279.399 69.3264 263.641 45.688 257.153 37.0335C255.034 34.1917 253.18 31.7374 251.591 29.5415L159.162 29.7999C157.573 29.929 156.514 31.4791 157.176 32.9Z" fill="url(#paint1_linear_413_3)"/>
<path d="M92.3594 194.603C90.413 185.862 87.2014 177.596 82.9193 169.995C82.3354 168.949 81.6542 167.809 80.9729 166.764C76.0096 158.688 69.8785 151.467 62.7741 145.196C61.8983 144.341 60.9251 143.581 59.9519 142.821C52.3609 136.645 43.6994 131.61 34.3567 127.999C33.1889 127.524 32.0211 127.144 30.8532 126.764C21.5105 123.534 11.3893 121.729 0.976056 121.539C0.392137 121.539 -0.289066 121.539 -0.872985 121.539C-1.4569 121.539 -2.13817 121.539 -2.72209 121.539C-13.2326 121.729 -23.2566 123.534 -32.5993 126.764C-33.7671 127.144 -34.9349 127.619 -36.1028 127.999C-45.4455 131.61 -54.1069 136.645 -61.6979 142.821C-62.6711 143.581 -63.6443 144.436 -64.5202 145.196C-71.6245 151.467 -77.853 158.688 -82.719 166.764C-83.4002 167.809 -83.9841 168.949 -84.6654 169.995C-88.9474 177.596 -92.159 185.862 -94.1054 194.603C-94.3973 195.838 -94.592 197.073 -94.884 198.308C-95.8572 203.629 -96.3438 209.044 -96.3438 214.555H94.5004C94.5004 209.044 94.0138 203.534 93.0406 198.308C92.846 197.073 92.6513 195.838 92.3594 194.603Z" fill="#FCDDD4"/>
</g>
<defs>
<linearGradient id="paint0_linear_413_3" x1="272.065" y1="279.318" x2="272.065" y2="737.71" gradientUnits="userSpaceOnUse">
<stop stop-color="#F37753"/>
<stop offset="1" stop-color="white" stop-opacity="0"/>
</linearGradient>
<linearGradient id="paint1_linear_413_3" x1="207.706" y1="9.78122" x2="257.351" y2="131.785" gradientUnits="userSpaceOnUse">
<stop stop-color="#F7A58D"/>
<stop offset="0.926161" stop-color="white"/>
</linearGradient>
<clipPath id="clip0_413_3">
<rect width="1600" height="6102" fill="white" transform="translate(0 -5081)"/>
</clipPath>
</defs>
</svg>
